<?xml version="1.0" encoding="UTF-8" standalone="no"?>
<svg
   xmlns:dc="http://purl.org/dc/elements/1.1/"
   xmlns:cc="http://creativecommons.org/ns#"
   xmlns:rdf="http://www.w3.org/1999/02/22-rdf-syntax-ns#"
   xmlns:svg="http://www.w3.org/2000/svg"
   xmlns="http://www.w3.org/2000/svg"
   xmlns:sodipodi="http://sodipodi.sourceforge.net/DTD/sodipodi-0.dtd"
   xmlns:inkscape="http://www.inkscape.org/namespaces/inkscape"
   version="1.1"
   x="0px"
   y="0px"
   viewBox="0 0 100 125"
   enable-background="new 0 0 100 100"
   xml:space="preserve"
   id="svg2"
   inkscape:version="0.91 r13725"
   sodipodi:docname="actu.svg"><metadata
     id="metadata14"><rdf:RDF><cc:Work
         rdf:about=""><dc:format>image/svg+xml</dc:format><dc:type
           rdf:resource="http://purl.org/dc/dcmitype/StillImage" /><dc:title /></cc:Work></rdf:RDF></metadata><defs
     id="defs12" /><sodipodi:namedview
     pagecolor="#ffffff"
     bordercolor="#666666"
     borderopacity="1"
     objecttolerance="10"
     gridtolerance="10"
     guidetolerance="10"
     inkscape:pageopacity="0"
     inkscape:pageshadow="2"
     inkscape:window-width="1346"
     inkscape:window-height="941"
     id="namedview10"
     showgrid="false"
     inkscape:zoom="1.888"
     inkscape:cx="-42.425847"
     inkscape:cy="62.5"
     inkscape:window-x="10"
     inkscape:window-y="34"
     inkscape:window-maximized="0"
     inkscape:current-layer="svg2" /><path
     d="m 18.824778,26.769695 c -17.3624173,17.362415 -17.3624173,45.517687 0,62.880103 17.362416,17.362412 45.517687,17.362412 62.880104,0 17.362414,-17.362416 17.362414,-45.517688 0,-62.880103 -17.362417,-17.3624175 -45.517688,-17.3624175 -62.880104,0 z m 43.452967,29.469182 c -4.880247,8.446582 -9.760494,16.799312 -14.54689,25.245893 0,0 0,0.09385 -0.09385,0.09385 -0.375403,0.656956 -0.750807,1.220062 -1.501614,0.938509 -0.844658,-0.281553 -0.656956,-1.03236 -0.563105,-1.689316 0.375403,-2.158571 0.750807,-4.223291 1.220061,-6.381862 0.656957,-3.754036 1.407764,-7.414221 2.06472,-11.168257 0.09385,-0.281553 0.09385,-0.656956 0.09385,-1.126211 -0.469254,0 -0.844658,-0.09385 -1.220062,-0.09385 -2.721676,0 -5.537203,0 -8.258879,0 -1.595465,0 -1.970869,-0.656956 -1.220062,-2.064719 4.880247,-8.446582 9.760494,-16.799313 14.54689,-25.245893 0,0 0,-0.09385 0.09385,-0.09385 0.375403,-0.656956 0.750807,-1.220061 1.501614,-0.938509 0.844658,0.281553 0.656957,1.03236 0.563106,1.689316 -0.375404,2.158571 -0.750808,4.22329 -1.220062,6.381861 -0.656956,3.754036 -1.407764,7.414221 -2.06472,11.168257 -0.09385,0.281553 -0.09385,0.656956 -0.09385,1.126211 0.469255,0 0.844658,0.09385 1.220062,0.09385 2.721676,0 5.537203,0 8.258879,0 1.595466,0 1.970869,0.656956 1.220062,2.06472 z"
     id="path4"
     inkscape:connector-curvature="0"
     style="fill:#666666;fill-opacity:1" /></svg>