<?xml version="1.0" encoding="UTF-8" standalone="no"?>
<svg
   xmlns:dc="http://purl.org/dc/elements/1.1/"
   xmlns:cc="http://creativecommons.org/ns#"
   xmlns:rdf="http://www.w3.org/1999/02/22-rdf-syntax-ns#"
   xmlns:svg="http://www.w3.org/2000/svg"
   xmlns="http://www.w3.org/2000/svg"
   xmlns:sodipodi="http://sodipodi.sourceforge.net/DTD/sodipodi-0.dtd"
   xmlns:inkscape="http://www.inkscape.org/namespaces/inkscape"
   version="1.1"
   x="0px"
   y="0px"
   viewBox="0 0 100 125"
   enable-background="new 0 0 100 100"
   xml:space="preserve"
   id="svg2"
   inkscape:version="0.91 r13725"
   sodipodi:docname="calandar.svg"><metadata
     id="metadata16"><rdf:RDF><cc:Work
         rdf:about=""><dc:format>image/svg+xml</dc:format><dc:type
           rdf:resource="http://purl.org/dc/dcmitype/StillImage" /><dc:title /></cc:Work></rdf:RDF></metadata><defs
     id="defs14" /><sodipodi:namedview
     pagecolor="#ffffff"
     bordercolor="#666666"
     borderopacity="1"
     objecttolerance="10"
     gridtolerance="10"
     guidetolerance="10"
     inkscape:pageopacity="0"
     inkscape:pageshadow="2"
     inkscape:window-width="1806"
     inkscape:window-height="740"
     id="namedview12"
     showgrid="false"
     inkscape:zoom="1.888"
     inkscape:cx="50"
     inkscape:cy="62.5"
     inkscape:window-x="10"
     inkscape:window-y="34"
     inkscape:window-maximized="0"
     inkscape:current-layer="svg2" /><g
     id="g4"
     transform="translate(0,12.711864)"
     style="fill:#666666"><path
       d="M 32,21.5 C 32,24 30,26 27.5,26 25,26 23,24 23,21.5 l 0,-12 C 23,7 25,5 27.5,5 30,5 32,7 32,9.5 l 0,12 z M 76,9.5 C 76,7 74,5 71.5,5 69,5 67,7 67,9.5 l 0,12 C 67,24 69,26 71.5,26 74,26 76,24 76,21.5 l 0,-12 z M 95,20.9 95,90 c 0,2.7 -2.2,4.9 -5,4.9 l -80,0 C 7.2,94.9 5,92.7 5,90 L 5,20.9 C 5,18.2 7.2,16 10,16 l 10,0 0,5.5 c 0,4.3 3.2,7.7 7.5,7.7 4.3,0 7.5,-3.5 7.5,-7.7 l 0,-5.5 29,0 0,5.5 c 0,4.3 3.2,7.7 7.5,7.7 4.3,0 7.5,-3.5 7.5,-7.7 l 0,-5.5 10.9,0 c 2.7,0 5.1,2.2 5.1,4.9 z m -8,18 C 87,37.9 86.1,37 85,37 l -70,0 c -1.1,0 -2,0.8 -2,1.9 l 0,46.2 c 0,1 0.9,1.9 2,1.9 l 70,0 c 1.1,0 2,-0.8 2,-1.9 l 0,-46.2 z"
       id="path6"
       inkscape:connector-curvature="0"
       style="fill:#666666" /></g></svg>