<?xml version="1.0" encoding="UTF-8" standalone="no"?>
<svg
   xmlns:dc="http://purl.org/dc/elements/1.1/"
   xmlns:cc="http://creativecommons.org/ns#"
   xmlns:rdf="http://www.w3.org/1999/02/22-rdf-syntax-ns#"
   xmlns:svg="http://www.w3.org/2000/svg"
   xmlns="http://www.w3.org/2000/svg"
   xmlns:sodipodi="http://sodipodi.sourceforge.net/DTD/sodipodi-0.dtd"
   xmlns:inkscape="http://www.inkscape.org/namespaces/inkscape"
   version="1.1"
   x="0px"
   y="0px"
   viewBox="0 0 100 125"
   enable-background="new 0 0 100 100"
   xml:space="preserve"
   id="svg2"
   inkscape:version="0.91 r13725"
   sodipodi:docname="contact.svg"><metadata
     id="metadata14"><rdf:RDF><cc:Work
         rdf:about=""><dc:format>image/svg+xml</dc:format><dc:type
           rdf:resource="http://purl.org/dc/dcmitype/StillImage" /><dc:title></dc:title></cc:Work></rdf:RDF></metadata><defs
     id="defs12" /><sodipodi:namedview
     pagecolor="#ffffff"
     bordercolor="#666666"
     borderopacity="1"
     objecttolerance="10"
     gridtolerance="10"
     guidetolerance="10"
     inkscape:pageopacity="0"
     inkscape:pageshadow="2"
     inkscape:window-width="640"
     inkscape:window-height="480"
     id="namedview10"
     showgrid="false"
     inkscape:zoom="1.888"
     inkscape:cx="50"
     inkscape:cy="62.5"
     inkscape:window-x="10"
     inkscape:window-y="34"
     inkscape:window-maximized="0"
     inkscape:current-layer="svg2" /><path
     d="m 87.587661,107.71186 -66.191,0 0,-89.999996 66.192,0 c 4.385,0 7.941,3.556 7.941,7.942 l 0,74.117 c 0,4.384996 -3.556,7.940996 -7.942,7.940996 z m -28.6,-63.584996 c -7.996,0 -13.884,6.781 -13.884,15.878 0,9.097 5.888,17.265 13.884,17.265 7.996,0 14.033,-8.167 14.033,-17.265 0,-9.098 -6.037,-15.878 -14.033,-15.878 z m 14.01,33.157 c -3.259,3.789 -8.84,6.716 -13.967,6.716 -5.222,0 -10.521,-3.027 -13.788,-6.94 -13.334,2.866 -15.454,9.966 -16.01,20.058 l 58.473,0 c -0.542,-9.843 -2.204,-16.793 -14.708,-19.834 z m -67.468,22.486 0,-74.116 c 0,-4.386 3.556,-7.942 7.942,-7.942 l 5.201,0 0,89.999996 -5.201,0 c -4.386,0 -7.942,-3.556 -7.942,-7.941996 z"
     id="path4"
     inkscape:connector-curvature="0"
     style="clip-rule:evenodd;fill-rule:evenodd" /></svg>